<svg xmlns="http://www.w3.org/2000/svg" xmlns:xlink="http://www.w3.org/1999/xlink" version="1.1" x="0px" y="0px" viewBox="0 0 512 640" enable-background="new 0 0 512 512" xml:space="preserve"><path d="M476.982,207.612c-0.006-0.127-0.01-0.253-0.021-0.38c-0.01-0.112-0.023-0.222-0.039-0.333  c-0.016-0.115-0.031-0.229-0.053-0.343c-0.021-0.116-0.048-0.229-0.075-0.343c-0.025-0.107-0.052-0.214-0.083-0.321  c-0.032-0.114-0.07-0.226-0.108-0.337c-0.034-0.104-0.07-0.208-0.111-0.31c-0.044-0.108-0.092-0.215-0.142-0.32  c-0.047-0.102-0.095-0.203-0.146-0.303c-0.054-0.104-0.111-0.205-0.17-0.305c-0.059-0.096-0.112-0.191-0.173-0.284  c-0.067-0.104-0.142-0.203-0.212-0.302c-0.063-0.084-0.122-0.169-0.188-0.251c-0.084-0.105-0.174-0.206-0.264-0.306  c-0.048-0.053-0.09-0.11-0.142-0.162c-0.018-0.019-0.037-0.034-0.056-0.052c-0.095-0.098-0.195-0.189-0.296-0.281  c-0.072-0.066-0.145-0.135-0.217-0.197c-0.096-0.079-0.193-0.151-0.291-0.225c-0.087-0.065-0.172-0.133-0.262-0.194  c-0.092-0.062-0.188-0.118-0.28-0.176c-0.102-0.061-0.198-0.126-0.302-0.182c-0.097-0.053-0.196-0.098-0.298-0.146  c-0.104-0.05-0.205-0.104-0.311-0.15c-0.11-0.047-0.227-0.085-0.337-0.127c-0.102-0.037-0.197-0.077-0.298-0.109  c-0.115-0.037-0.234-0.064-0.354-0.095c-0.103-0.027-0.204-0.057-0.307-0.079c-0.11-0.023-0.224-0.038-0.333-0.056  c-0.117-0.019-0.233-0.041-0.353-0.053c-0.101-0.011-0.202-0.015-0.304-0.022c-0.132-0.009-0.264-0.019-0.396-0.02  c-0.025,0-0.054-0.004-0.078-0.004H116.099l184.418-49.369c0.154-0.036,0.309-0.077,0.458-0.123l78.271-20.953  c0.063-0.016,0.125-0.033,0.188-0.05l78.504-21.015c0.002,0,0.004-0.001,0.005-0.001c0.017-0.004,0.028-0.01,0.046-0.014  c0.253-0.07,0.498-0.156,0.738-0.253c0.079-0.031,0.156-0.067,0.234-0.101c0.183-0.081,0.36-0.169,0.535-0.266  c0.077-0.042,0.153-0.083,0.229-0.128c0.229-0.138,0.454-0.286,0.666-0.449c0.047-0.036,0.09-0.078,0.136-0.115  c0.172-0.138,0.336-0.284,0.491-0.438c0.07-0.069,0.14-0.14,0.206-0.212c0.146-0.153,0.28-0.314,0.41-0.48  c0.045-0.058,0.093-0.112,0.138-0.172c0.148-0.204,0.289-0.414,0.416-0.634c0.019-0.029,0.029-0.059,0.046-0.088  c0.012-0.019,0.023-0.036,0.034-0.055c0.04-0.074,0.071-0.151,0.108-0.226c0.056-0.111,0.112-0.221,0.162-0.334  c0.048-0.11,0.089-0.221,0.131-0.333c0.038-0.102,0.078-0.203,0.111-0.307c0.041-0.125,0.072-0.251,0.105-0.377  c0.024-0.093,0.051-0.185,0.071-0.279c0.029-0.135,0.052-0.271,0.073-0.405c0.014-0.089,0.027-0.178,0.04-0.268  c0.016-0.136,0.023-0.271,0.031-0.407c0.008-0.092,0.015-0.185,0.017-0.277c0.002-0.13-0.002-0.26-0.007-0.39  c-0.003-0.099-0.007-0.198-0.016-0.298c-0.01-0.123-0.023-0.244-0.041-0.366c-0.015-0.105-0.025-0.21-0.046-0.316  c-0.021-0.116-0.048-0.231-0.074-0.347c-0.019-0.081-0.029-0.162-0.053-0.242L442.44,24.582c-1.003-3.731-4.834-5.949-8.571-4.947  L40.657,124.906c-1.793,0.479-3.323,1.653-4.251,3.261c-0.929,1.608-1.18,3.52-0.699,5.313l0.231,0.862  c0.027,0.105,0.053,0.211,0.085,0.315l19.864,74.105v77.9v147.329v51.852c0,3.866,3.134,7,7,7h407.108c3.866,0,7-3.134,7-7v-51.852  V286.664v-78.822C476.994,207.764,476.985,207.689,476.982,207.612z M452.513,214.842l-67.965,64.822h-61.089l67.979-64.822H452.513  z M371.151,214.842l-67.98,64.822h-61.092l67.966-64.822H371.151z M289.761,214.842l-67.966,64.822H160.72l67.965-64.822H289.761z   M208.4,214.842l-67.965,64.822H79.344l67.965-64.822H208.4z M127.024,214.842l-57.138,54.496v-54.496H127.024z M430.732,34.968  l14.395,53.614l-70.588-38.57L430.732,34.968z M354.944,55.258l82.485,45.072l-59.015,15.798l-82.476-45.074L354.944,55.258z   M276.348,76.3l82.477,45.074l-59.004,15.795l-82.483-45.07L276.348,76.3z M197.74,97.345l82.482,45.07l-58.98,15.79l-82.473-45.071  L197.74,97.345z M119.174,118.379l82.472,45.071l-58.973,15.787l-82.496-45.063L119.174,118.379z M53.716,146.597l69.359,37.886  l-55.239,14.788L53.716,146.597z M462.994,478.845H69.886v-37.852h393.108V478.845z M462.994,426.993H69.886V293.664h393.108  V426.993z M462.994,279.664h-58.162l58.162-55.473V279.664z"/></svg>